# xmcd CD database file
#
# Track frame offsets:
#	182
#	17105
#	30657
#	47330
#	63492
#	77332
#	96255
#	115542
#	128512
#	141627
#	155695
#	173532
#
# Disc length: 2488 seconds
#
# Revision: 0
# Processed by: cddbd v1.4PL0 Copyright (c) Steve Scherf et al.
# Submitted via: Feurio! 1.65 - http://www.feurio.com
#
DISCID=8f09b60c
DTITLE=Dharma Blues Band - Dharma Blues
DYEAR=1900
DGENRE=Blues
TTITLE0=I Thought I Heard That Train Whistle Blow
TTITLE1=How Long Blues
TTITLE2=Diving Duck Blues
TTITLE3=Big Road Blues
TTITLE4=Bring It On Home
TTITLE5=Boogie For Pete
TTITLE6=Chicago Calling
TTITLE7=Good Morning (Little Schoolgirl)
TTITLE8=Viola Lee Blues
TTITLE9=Mopper's Blues
TTITLE10=Going Down Slow
TTITLE11=Baby Please Don't Go
EXTD=ARD  Forgotten Jewels\r\nMike King (piano), John Hillary (voc, guitar), 
EXTD=Gary Compton (harmonica, bones)
EXTT0=
EXTT1=
EXTT2=
EXTT3=
EXTT4=
EXTT5=
EXTT6=
EXTT7=
EXTT8=
EXTT9=
EXTT10=
EXTT11=
PLAYORDER=
